<svg xmlns="http://www.w3.org/2000/svg" width="28" height="28" viewBox="0 0 28 28"><g transform="translate(-38 -60)"><rect width="28" height="28" rx="7" transform="translate(38 60)" fill="#e9e9e9" opacity="0.8"/><path d="M84.207,3.118c-.15-.01-.3-.021-.456-.021a1.847,1.847,0,0,0-.455.05c-.98.258-1.952.546-2.917.854a.9.9,0,0,1-.277.05.663.663,0,0,1-.358-.111Q76.833,2.158,73.913.391A1.954,1.954,0,0,0,73.069,0c-.22,0-.419.158-.834.49s-.429.412-.093.823L75.179,5.02l.446.545c.134.164.264.331.415.522-.77.441-1.491.864-2.226,1.265a.312.312,0,0,1-.145.03.764.764,0,0,1-.245-.046c-.473-.17-.95-.334-1.417-.519-.181-.071-.362-.147-.54-.225a1.149,1.149,0,0,0-.459-.11.936.936,0,0,0-.62.261c-.328.281-.348.336-.034.656.061.061.121.124.182.187.471.485.935.978,1.429,1.44a1.222,1.222,0,0,1,.388.908q.045.922.118,1.841l.039.481a.4.4,0,0,0,.167.3.385.385,0,0,0,.168.033,1.115,1.115,0,0,0,.884-.5c.1-.262.2-.525.3-.788.174-.461.348-.923.529-1.382.047-.121.128-.282.232-.321.8-.289,1.6-.553,2.425-.833.037.133.074.225.09.322.02.123.04.245.058.368.267,1.671.523,3.345.806,5.013.107.632.056.888.436.888a3.489,3.489,0,0,0,.68-.11c.559-.127.646-.2.751-.787.413-2.313.836-4.625,1.24-6.939a.81.81,0,0,1,.5-.679,12.29,12.29,0,0,0,1.336-.736,4.821,4.821,0,0,0,2.057-2.022V3.7a1.151,1.151,0,0,0-.967-.583M83.168,5.377a1.6,1.6,0,0,0-.652-1.471,1.023,1.023,0,0,1,.418-.1.7.7,0,0,1,.637.415.8.8,0,0,1-.4,1.156" transform="translate(-25.651 66.785)" fill="#2a2e43"/></g></svg>