<svg xmlns="http://www.w3.org/2000/svg" width="28" height="28" viewBox="0 0 28 28"><g transform="translate(-38 -60)"><rect width="28" height="28" rx="7" transform="translate(38 60)" fill="#e9e9e9" opacity="0.8"/><path d="M12.931.938V11.993a.941.941,0,0,1-.938.938H.938A.935.935,0,0,1,0,11.993V.938A.935.935,0,0,1,.938,0H2.712V5.349a.939.939,0,0,0,.357.732.963.963,0,0,0,.807.178l2.59-.648,2.59.648a.926.926,0,0,0,.225.028.957.957,0,0,0,.582-.206.943.943,0,0,0,.357-.741L10.21,0h1.783a.941.941,0,0,1,.938.938" transform="translate(45.534 67.534)" fill="#2a2e43"/><path d="M8.644,4.148,6.992,3.735a.915.915,0,0,0-.45,0L4.89,4.148V0H8.634Z" transform="translate(45.233 67.534)" fill="#2a2e43"/></g></svg>