<svg xmlns="http://www.w3.org/2000/svg" width="28" height="28" viewBox="0 0 28 28"><g transform="translate(-38 -60)"><rect width="28" height="28" rx="7" transform="translate(38 60)" fill="#e9e9e9" opacity="0.8"/><path d="M17.987,14.3V6.4h0A1.317,1.317,0,0,0,16.67,5.086H12.04V1.3a1.3,1.3,0,0,0-1.3-1.3H5.531a1.3,1.3,0,0,0-1.3,1.3c0,5.184,0,12.868,0,13.948a.424.424,0,0,0,.38.421l.044,0,1.523-.054a.65.65,0,0,0,.651-.651v-1.3a.651.651,0,0,1,.651-.65h1.3a.651.651,0,0,1,.651.65v1.3a.651.651,0,0,0,.651.651h1.976a.658.658,0,0,0,.658-.659V13.646a.659.659,0,0,1,.659-.659h1.316a.659.659,0,0,1,.659.659v1.316a.658.658,0,0,0,.658.659h1.976a.659.659,0,0,0,0-1.318m-10.5-3.24h-1.3v-1.3h1.3Zm0-2.6h-1.3v-1.3h1.3Zm0-2.6h-1.3v-1.3h1.3Zm0-2.6h-1.3l0-1.3h1.3Zm2.6,7.81h-1.3v-1.3h1.3Zm0-2.6h-1.3V7.16h1.3Zm0-2.6h-1.3v-1.3h1.3Zm0-2.6h-1.3v-1.3h1.3Zm3.291,7.756H12.061V9.695h1.318Zm0-2.634H12.061V7.061h1.318Zm2.633,2.634H14.695V9.695h1.316Zm0-2.634H14.695V7.061h1.316Z" transform="translate(41.162 66.163)" fill="#2a2e43" fill-rule="evenodd"/></g></svg>