<svg id="close-icon" xmlns="http://www.w3.org/2000/svg" width="24" height="24" viewBox="0 0 24 24">
  <path id="Path_1081" data-name="Path 1081" d="M0,0H24V24H0Z" fill="#383838" opacity="0"/>
  <path id="Path_1111" data-name="Path 1111" d="M4.293,4.293a1,1,0,0,1,1.414,0L10,8.586l4.293-4.293a1,1,0,1,1,1.414,1.414L11.414,10l4.293,4.293a1,1,0,1,1-1.414,1.414L10,11.414,5.707,15.707a1,1,0,1,1-1.414-1.414L8.586,10,4.293,5.707a1,1,0,0,1,0-1.414Z" transform="translate(2 3)" fill="#383838" fill-rule="evenodd"/>
</svg>
