<svg xmlns="http://www.w3.org/2000/svg" width="24" height="24" viewBox="0 0 24 24"><g fill="#e9e9e9" stroke="#707070" stroke-width="1" opacity="0"><rect width="24" height="24" stroke="none"/><rect x="0.5" y="0.5" width="23" height="23" fill="none"/></g><path d="M16.4,12V4.8A1.8,1.8,0,0,0,14.6,3H3.8A1.8,1.8,0,0,0,2,4.8V12a1.8,1.8,0,0,0,1.8,1.8H6.5l2.7,2.7,2.7-2.7h2.7A1.8,1.8,0,0,0,16.4,12ZM4.7,6.6a.9.9,0,0,1,.9-.9h7.2a.9.9,0,1,1,0,1.8H5.6A.9.9,0,0,1,4.7,6.6Zm.9,2.7a.9.9,0,0,0,0,1.8H8.3a.9.9,0,0,0,0-1.8Z" transform="translate(2.802 2.752)" fill="#707070" fill-rule="evenodd"/></svg>