<svg id="done-icon" xmlns="http://www.w3.org/2000/svg" width="24" height="24" viewBox="0 0 24 24">
  <g id="Rectangle_1626" data-name="Rectangle 1626" fill="#395aff" stroke="#707070" stroke-width="1" opacity="0">
    <rect width="24" height="24" stroke="none"/>
    <rect x="0.5" y="0.5" width="23" height="23" fill="none"/>
  </g>
  <path id="Path_1139" data-name="Path 1139" d="M5.683,3.256a2.646,2.646,0,0,0,1.506-.624,2.646,2.646,0,0,1,3.432,0,2.646,2.646,0,0,0,1.506.624,2.646,2.646,0,0,1,2.427,2.427,2.642,2.642,0,0,0,.624,1.506,2.646,2.646,0,0,1,0,3.432,2.646,2.646,0,0,0-.624,1.506,2.646,2.646,0,0,1-2.427,2.427,2.646,2.646,0,0,0-1.506.624,2.646,2.646,0,0,1-3.432,0,2.646,2.646,0,0,0-1.506-.624,2.646,2.646,0,0,1-2.427-2.427,2.646,2.646,0,0,0-.624-1.506,2.646,2.646,0,0,1,0-3.432,2.646,2.646,0,0,0,.624-1.506A2.646,2.646,0,0,1,5.683,3.256ZM12.1,7.789a.863.863,0,1,0-1.22-1.22L8.041,9.41,6.926,8.294a.863.863,0,1,0-1.22,1.22l1.726,1.726a.863.863,0,0,0,1.22,0L12.1,7.789Z" transform="translate(3.096 3.095)" fill="#395aff" fill-rule="evenodd"/>
</svg>
