<svg id="done-icon" xmlns="http://www.w3.org/2000/svg" width="71.634" height="71.626" viewBox="0 0 71.634 71.626">
  <path id="Path_1151" data-name="Path 1151" d="M68.643,66.84a2.105,2.105,0,0,1-2.612,2.6l-7.758-2.261a8.527,8.527,0,0,0-6.247.578A35.813,35.813,0,1,1,67.237,53.022a8.525,8.525,0,0,0-.713,6.461Z" transform="translate(0 0)" fill="#ffd500"/>
  <path id="Path_1152" data-name="Path 1152" d="M185.679,223l-19.785,18.546a5.008,5.008,0,0,1-6.85,0l-9.843-9.227a5.008,5.008,0,1,1,6.85-7.307l4.752,4.455a2.436,2.436,0,0,0,3.332,0l14.694-13.774a5.008,5.008,0,0,1,6.85,0h0a5.008,5.008,0,0,1,0,7.307" transform="translate(-131.622 -191.11)" fill="#fff"/>
</svg>
