<svg id="eye-icon" xmlns="http://www.w3.org/2000/svg" width="24" height="24" viewBox="0 0 24 24">
  <path id="Path_1081" data-name="Path 1081" d="M0,0H24V24H0Z" opacity="0"/>
  <path id="Path_1082" data-name="Path 1082" d="M9.249,4.5A8.869,8.869,0,0,0,1,10.124a8.861,8.861,0,0,0,16.5,0A8.869,8.869,0,0,0,9.249,4.5Zm0,9.373A3.749,3.749,0,1,1,13,10.124,3.751,3.751,0,0,1,9.249,13.873Zm0-6a2.25,2.25,0,1,0,2.25,2.25A2.247,2.247,0,0,0,9.249,7.874Z" transform="translate(2.751 1.876)" fill="#707070"/>
</svg>
