<svg xmlns="http://www.w3.org/2000/svg" width="21.82" height="20.992" viewBox="0 0 21.82 20.992"><path d="M3,12.5l2.11-2.11m0,0L12.5,3l7.386,7.386m-14.771,0V20.937a1.055,1.055,0,0,0,1.055,1.055H9.331M19.882,10.386l2.11,2.11m-2.11-2.11V20.937a1.055,1.055,0,0,1-1.055,1.055H15.661m-6.331,0a1.055,1.055,0,0,0,1.055-1.055v-4.22a1.055,1.055,0,0,1,1.055-1.055h2.11a1.055,1.055,0,0,1,1.055,1.055v4.22a1.055,1.055,0,0,0,1.055,1.055m-6.331,0" transform="translate(-1.586 -2)" fill="none" stroke="#707070" stroke-linecap="round" stroke-linejoin="round" stroke-width="2"/></svg>