<svg xmlns="http://www.w3.org/2000/svg" width="28" height="28" viewBox="0 0 28 28"><g transform="translate(-38 -60)"><rect width="28" height="28" rx="7" transform="translate(38 60)" fill="#e9e9e9" opacity="0.8"/><path d="M9.393,2.249a.849.849,0,0,0-1.2,0L2.249,8.193a.849.849,0,1,0,1.2,1.2L3.7,9.144v5.592a.849.849,0,0,0,.849.849h1.7a.849.849,0,0,0,.849-.849v-1.7a.849.849,0,0,1,.849-.849h1.7a.849.849,0,0,1,.849.849v1.7a.849.849,0,0,0,.849.849h1.7a.849.849,0,0,0,.849-.849V9.144l.249.249a.849.849,0,1,0,1.2-1.2L9.393,2.249Z" transform="translate(43.207 65.207)" fill="#2a2e43"/></g></svg>