<svg xmlns="http://www.w3.org/2000/svg" width="28" height="28" viewBox="0 0 28 28"><g transform="translate(-38 -60)"><rect width="28" height="28" rx="7" transform="translate(38 60)" fill="#e9e9e9" opacity="0.8"/><path d="M17.4,9.7A7.7,7.7,0,1,1,9.7,2,7.7,7.7,0,0,1,17.4,9.7Zm-6.74-3.851A.963.963,0,1,1,9.7,4.888.963.963,0,0,1,10.665,5.851ZM8.74,8.74a.963.963,0,0,0,0,1.926v2.888a.963.963,0,0,0,.963.963h.963a.963.963,0,0,0,0-1.926V9.7A.963.963,0,0,0,9.7,8.74Z" transform="translate(42.298 64.298)" fill="#2a2e43" fill-rule="evenodd"/></g></svg>