<svg id="login-icon" xmlns="http://www.w3.org/2000/svg" width="28" height="28" viewBox="0 0 28 28">
  <rect id="Rectangle_6" data-name="Rectangle 6" width="28" height="28" rx="7" fill="#e9e9e9"/>
  <path id="Path_1156" data-name="Path 1156" d="M2.926,3a.926.926,0,0,1,.926.926V15.039a.926.926,0,0,1-1.852,0V3.926A.926.926,0,0,1,2.926,3Zm7.137,3.05a.926.926,0,0,1,0,1.309l-1.2,1.2h7.025a.926.926,0,0,1,0,1.852H8.866l1.2,1.2a.926.926,0,1,1-1.31,1.31L5.976,10.137a.926.926,0,0,1,0-1.309L8.754,6.05a.926.926,0,0,1,1.309,0Z" transform="translate(5.196 4.517)" fill="#2a2e43" fill-rule="evenodd"/>
</svg>
