<svg xmlns="http://www.w3.org/2000/svg" width="193.163" height="50.702" viewBox="0 0 193.163 50.702"><g transform="translate(-101.796 -319.626)"><g transform="translate(-11.479)"><path d="M-86.2-25.254h8.556V0h9.016V-25.254h8.648V-32.43H-86.2ZM-47.61-11.27c0-3.956,2.07-5.152,5.8-5.152h2.53v-9.614a10.235,10.235,0,0,0-8.326,4.784v-4.554h-9.016V0h9.016ZM-36.064,0h9.016V-25.806h-9.016Zm4.554-28.2c3.174,0,5.244-2.024,5.244-4.6,0-2.622-2.07-4.692-5.244-4.692-3.22,0-5.29,2.07-5.29,4.692C-36.8-30.222-34.73-28.2-31.51-28.2Zm18.63,5.98v-3.588H-21.9V12.328h9.016V-3.588A8.441,8.441,0,0,0-5.336.322C.828.322,5.658-4.692,5.658-12.926s-4.83-13.2-10.994-13.2A8.347,8.347,0,0,0-12.88-22.218ZM-3.5-12.926c0,3.45-2.162,5.382-4.692,5.382S-12.88-9.43-12.88-12.926c0-3.45,2.162-5.336,4.692-5.336S-3.5-16.422-3.5-12.926Zm21.9-9.292v-3.588H9.384V12.328H18.4V-3.588A8.441,8.441,0,0,0,25.944.322c6.164,0,10.994-5.014,10.994-13.248s-4.83-13.2-10.994-13.2A8.347,8.347,0,0,0,18.4-22.218Zm9.384,9.292c0,3.45-2.162,5.382-4.692,5.382S18.4-9.43,18.4-12.926c0-3.45,2.162-5.336,4.692-5.336S27.784-16.422,27.784-12.926ZM52.256-19c2.07,0,3.864,1.242,3.864,3.542H48.162A3.893,3.893,0,0,1,52.256-19ZM64.768-8.924H55.154A3.365,3.365,0,0,1,51.934-6.9c-2.024,0-3.634-1.2-3.818-4.186H65.182A16.343,16.343,0,0,0,65.32-13.2c0-8-5.382-12.926-13.018-12.926-7.728,0-13.11,5.014-13.11,13.2C39.192-4.692,44.666.322,52.3.322,58.742.322,63.572-3.634,64.768-8.924ZM78.016-11.27c0-3.956,2.07-5.152,5.8-5.152h2.53v-9.614a10.235,10.235,0,0,0-8.326,4.784v-4.554H69V0h9.016Z" transform="translate(199.479 358)" fill="#395aff"/><path d="M8.48,4a4.48,4.48,0,1,0,4.48,4.48A4.485,4.485,0,0,0,8.48,4m0-4A8.48,8.48,0,1,1,0,8.48,8.48,8.48,0,0,1,8.48,0Z" transform="translate(289.479 319.626)" fill="#ffd500"/></g></g></svg>