<svg id="logout-icon" xmlns="http://www.w3.org/2000/svg" width="62.357" height="74.702" viewBox="0 0 62.357 74.702">
  <path id="Path_1153" data-name="Path 1153" d="M46.93,61.454H31.96a2.489,2.489,0,0,1-2.489-2.489V12.675a2.489,2.489,0,0,0-1.83-2.4L20.51,8.318A1.493,1.493,0,0,1,20.9,5.386H46.93a2.489,2.489,0,0,1,2.489,2.489V23.743a2.489,2.489,0,0,0,2.489,2.489h.413a2.489,2.489,0,0,0,2.489-2.489V3.363A3.368,3.368,0,0,0,51.442,0H3.368A3.368,3.368,0,0,0,0,3.363V65.486a2.489,2.489,0,0,0,1.83,2.4l24.494,6.721a2.489,2.489,0,0,0,3.147-2.4V69.334a2.489,2.489,0,0,1,2.489-2.489H51.442a3.368,3.368,0,0,0,3.368-3.368V43.1a2.489,2.489,0,0,0-2.489-2.489h-.413A2.489,2.489,0,0,0,49.419,43.1V58.965a2.489,2.489,0,0,1-2.489,2.489" transform="translate(0 0.005)" fill="#fe0000"/>
  <path id="Path_1154" data-name="Path 1154" d="M776.13,561.278h0a1.5,1.5,0,0,0-2.617-1.013l-5.074,5.572a1.5,1.5,0,0,0,.014,2.041l5.074,5.421a1.5,1.5,0,0,0,2.6-1.028v-.077a1.5,1.5,0,0,1,1.5-1.5H792.6a1.5,1.5,0,0,0,1.5-1.5v-4.9a1.5,1.5,0,0,0-1.5-1.5H777.634a1.5,1.5,0,0,1-1.5-1.5" transform="translate(-731.743 -533.311)" fill="#fe0000"/>
</svg>
