<svg xmlns="http://www.w3.org/2000/svg" width="28" height="28" viewBox="0 0 28 28"><g transform="translate(-38 -60)"><rect width="28" height="28" rx="7" transform="translate(38 60)" fill="#e9e9e9" opacity="0.8"/><path d="M2.92,3A.92.92,0,0,0,2,3.92V14.962a.92.92,0,1,0,1.84,0V3.92A.92.92,0,0,0,2.92,3Zm9.471,8.551a.92.92,0,1,0,1.3,1.3l2.76-2.761a.92.92,0,0,0,0-1.3l-2.76-2.76a.92.92,0,1,0-1.3,1.3l1.19,1.19H6.6a.92.92,0,1,0,0,1.84h6.98Z" transform="translate(42.639 64.559)" fill="#2a2e43" fill-rule="evenodd"/></g></svg>