<svg xmlns="http://www.w3.org/2000/svg" width="28" height="28" viewBox="0 0 28 28"><g transform="translate(-38 -60)"><rect width="28" height="28" rx="7" transform="translate(38 60)" fill="#e9e9e9" opacity="0.8"/><path d="M4,3.656A1.656,1.656,0,0,1,5.656,2h3.8a1.656,1.656,0,0,1,1.17.485L13.45,5.312a1.656,1.656,0,0,1,.485,1.171v7.109a1.656,1.656,0,0,1-1.656,1.656H5.656A1.656,1.656,0,0,1,4,13.591ZM5.656,8.623A.828.828,0,0,1,6.484,7.8h4.968a.828.828,0,0,1,0,1.656H6.484A.828.828,0,0,1,5.656,8.623Zm.828,2.484a.828.828,0,0,0,0,1.656h4.968a.828.828,0,0,0,0-1.656Z" transform="translate(43.032 65.377)" fill="#2a2e43" fill-rule="evenodd"/></g></svg>