<svg xmlns="http://www.w3.org/2000/svg" width="40.565" height="45.056" viewBox="0 0 40.565 45.056"><g transform="translate(0.026 -772.041)"><path d="M28.934,32.106c-.051.009,16.976.021,16.938,0,0-9.622-7.277-17.45-16.9-17.45M28.946-.015c17.731,0,31.58,14.39,31.58,32.121,0-.094-31.553,0-31.553,0S28.905-.063,28.946-.015Z" transform="translate(-28.959 784.979)" fill="#ffd500"/><path d="M9,4.509A4.486,4.486,0,1,0,13.481,9,4.491,4.491,0,0,0,9,4.509M9,0A9,9,0,1,1,0,9,9,9,0,0,1,9,0Z" transform="translate(22.549 772.041)" fill="#ffd500"/></g></svg>