<svg xmlns="http://www.w3.org/2000/svg" width="40.565" height="45.056" viewBox="0 0 40.565 45.056"><g transform="translate(0)"><path d="M60.525,32.106c.051.009-16.976.021-16.938,0,0-9.622,7.277-17.45,16.9-17.45M60.513-.015c-17.731,0-31.58,14.39-31.58,32.121,0-.094,31.553,0,31.553,0S60.554-.063,60.513-.015Z" transform="translate(-19.961 12.939)" fill="#ffd500"/><path d="M9,4.509A4.486,4.486,0,1,1,4.509,9,4.491,4.491,0,0,1,9,4.509M9,0a9,9,0,1,0,9,9A9,9,0,0,0,9,0Z" transform="translate(0)" fill="#ffd500"/></g></svg>