<svg width="18" height="18" viewBox="0 0 18 18" fill="none" xmlns="http://www.w3.org/2000/svg">
<path d="M16.271 16.274L11.18 11.183M12.88 6.94C12.88 8.11469 12.5317 9.26301 11.8791 10.2398C11.2266 11.2165 10.2991 11.9779 9.21383 12.4276C8.12862 12.8772 6.93443 12.995 5.78227 12.7661C4.6301 12.5371 3.57169 11.9717 2.74085 11.1413C1.91001 10.3108 1.34404 9.25272 1.1145 8.10067C0.884969 6.94863 1.00217 5.75438 1.4513 4.66894C1.90042 3.58349 2.6613 2.65558 3.63773 2.00253C4.61417 1.34947 5.76231 1.00059 6.937 1C8.51239 1 10.0233 1.62582 11.1372 2.73979C12.2512 3.85375 12.877 5.36461 12.877 6.94H12.88Z" stroke="#707070" stroke-width="2" stroke-linecap="round" stroke-linejoin="round"/>
</svg>
