<svg xmlns="http://www.w3.org/2000/svg" width="28" height="28" viewBox="0 0 28 28"><rect width="28" height="28" rx="7" fill="#e9e9e9" opacity="0.8"/><path d="M10.367,3.031a1.352,1.352,0,0,0-2.627,0,1.351,1.351,0,0,1-2.015.836A1.351,1.351,0,0,0,3.867,5.724,1.352,1.352,0,0,1,3.032,7.74a1.351,1.351,0,0,0,0,2.625,1.351,1.351,0,0,1,.835,2.016,1.351,1.351,0,0,0,1.857,1.857,1.351,1.351,0,0,1,2.016.835,1.351,1.351,0,0,0,2.625,0,1.352,1.352,0,0,1,2.016-.835,1.351,1.351,0,0,0,1.857-1.857,1.352,1.352,0,0,1,.835-2.016,1.351,1.351,0,0,0,0-2.625,1.351,1.351,0,0,1-.835-2.016,1.351,1.351,0,0,0-1.857-1.857,1.351,1.351,0,0,1-2.016-.835ZM9.053,11.7A2.645,2.645,0,1,0,6.408,9.053,2.645,2.645,0,0,0,9.053,11.7Z" transform="translate(4.947 4.947)" fill="#2a2e43" fill-rule="evenodd"/></svg>