<svg id="star-icon" xmlns="http://www.w3.org/2000/svg" width="24" height="24" viewBox="0 0 24 24">
  <rect id="Rectangle_1626" data-name="Rectangle 1626" width="24" height="24" fill="#ffd500" opacity="0"/>
  <path id="Path_1105" data-name="Path 1105" d="M8.566,2.876a.926.926,0,0,1,1.76,0l.99,3.047a.926.926,0,0,0,.879.639h3.2a.926.926,0,0,1,.544,1.675l-2.591,1.882a.926.926,0,0,0-.337,1.035l.99,3.047a.926.926,0,0,1-1.425,1.035L9.99,13.352a.926.926,0,0,0-1.087,0L6.311,15.235A.926.926,0,0,1,4.886,14.2l.99-3.047a.926.926,0,0,0-.337-1.035L2.949,8.237a.926.926,0,0,1,.544-1.675H6.7a.926.926,0,0,0,.88-.639l.99-3.047Z" transform="translate(2.553 3.174)" fill="#ffd500"/>
</svg>
