<svg xmlns="http://www.w3.org/2000/svg" width="100" height="100" viewBox="0 0 100 100"><g transform="translate(-0.195 -0.195)"><g transform="translate(0.195 0.195)" fill="#fff" stroke="#395aff" stroke-width="5"><circle cx="50" cy="50" r="50" stroke="none"/><circle cx="50" cy="50" r="47.5" fill="none"/></g><g transform="translate(35.195 30.195)" fill="#fff" stroke="#395aff" stroke-width="5"><circle cx="15" cy="15" r="15" stroke="none"/><circle cx="15" cy="15" r="12.5" fill="none"/></g><g transform="translate(15.964 70.47)" fill="#fff"><path d="M 34.16304779052734 26.36476135253906 C 29.67569923400879 26.36476135253906 25.48471832275391 25.93684005737305 21.70653915405273 25.09289169311523 C 18.61013984680176 24.40123176574707 15.78537940979004 23.43101119995117 13.31074905395508 22.20916175842285 C 10.089919090271 20.6188850402832 8.215846061706543 18.98177146911621 7.344015121459961 18.03473472595215 C 9.840713500976563 13.63922786712646 13.43629932403564 9.90635871887207 17.81037902832031 7.18380069732666 C 22.73328971862793 4.119630813598633 28.41471862792969 2.500000715255737 34.2404670715332 2.500000715255737 C 40.01715850830078 2.500000715255737 45.6484375 4.101560592651367 50.52552795410156 7.131550788879395 C 54.87951278686523 9.836548805236816 58.52264022827148 13.59811687469482 61.13227844238281 18.06790924072266 C 60.21775436401367 19.02213859558105 58.33238983154297 20.62134552001953 55.19694900512695 22.16818046569824 C 52.70537948608398 23.39737129211426 49.86616897583008 24.37439155578613 46.7581901550293 25.07209014892578 C 42.95584869384766 25.9256706237793 38.7403678894043 26.36057090759277 34.22882843017578 26.36473083496094 L 34.16304779052734 26.36476135253906 Z" stroke="none"/><path d="M 34.24047470092773 4.999996185302734 C 28.88214874267578 4.999996185302734 23.65753555297852 6.489070892333984 19.13146209716797 9.306232452392578 C 15.68511581420898 11.45134544372559 12.76591110229492 14.27663803100586 10.55916213989258 17.58132171630859 C 11.55618667602539 18.36270904541016 13.00376892089844 19.3131103515625 14.9511604309082 20.22395706176758 C 17.23537445068359 21.2923583984375 19.8355598449707 22.1410083770752 22.67951202392578 22.74637031555176 C 26.16600036621094 23.48848342895508 30.02962493896484 23.86477088928223 34.16304779052734 23.86477088928223 L 34.22652435302734 23.86473274230957 C 38.39353561401367 23.86089515686035 42.28943634033203 23.47629547119141 45.80602264404297 22.72162055969238 C 48.66648864746094 22.10774612426758 51.2843017578125 21.24883270263672 53.58673858642578 20.16872024536133 C 55.46229934692383 19.28886413574219 56.88283538818359 18.37052154541016 57.88453674316406 17.60286712646484 C 55.59606170654297 14.23880481719971 52.64107894897461 11.38907051086426 49.20622253417969 9.255096435546875 C 44.72554779052734 6.471384048461914 39.55047607421875 4.999996185302734 34.24047470092773 4.999996185302734 M 34.24047470092773 -3.814697265625e-06 C 47.143310546875 -3.814697265625e-06 58.34336090087891 7.290494918823242 64.05809783935547 18.19255828857422 C 64.33087158203125 18.712646484375 56.58888626098633 28.84412002563477 34.23113632202148 28.86473274230957 C 34.20930099487305 28.86475372314453 34.18484878540039 28.86476516723633 34.16304397583008 28.86476516723633 C 11.85565567016602 28.86476516723633 4.139823913574219 18.75006103515625 4.463233947753906 18.11440849304199 C 9.880710601806641 7.458808898925781 21.18954849243164 -3.814697265625e-06 34.24047470092773 -3.814697265625e-06 Z" stroke="none" fill="#395aff"/></g></g></svg>