<svg xmlns="http://www.w3.org/2000/svg" width="64" height="64" viewBox="0 0 64 64"><g transform="translate(0.274 0.274)"><path d="M32,5A27.008,27.008,0,0,0,21.492,56.88,27.008,27.008,0,0,0,42.508,7.12,26.826,26.826,0,0,0,32,5m0-5A32,32,0,1,1,0,32,32,32,0,0,1,32,0Z" transform="translate(-0.274 -0.274)" fill="#e7e7e7"/><path d="M10,5a5,5,0,1,0,5,5,5.006,5.006,0,0,0-5-5m0-5A10,10,0,1,1,0,10,10,10,0,0,1,10,0Z" transform="translate(21.726 18.726)" fill="#e7e7e7"/><path d="M23.246,5a16.155,16.155,0,0,0-12.282,5.633c.354.2.756.4,1.21.6A27.739,27.739,0,0,0,23.2,13.211h.038a27.915,27.915,0,0,0,11.131-2.019c.414-.184.786-.37,1.118-.551a16.4,16.4,0,0,0-3.771-3.234A16.028,16.028,0,0,0,23.246,5m0-5A21.2,21.2,0,0,1,42.058,11.478c.172.328-4.712,6.72-18.818,6.733S4.255,11.83,4.46,11.428A21.084,21.084,0,0,1,23.246,0Z" transform="translate(8.486 44.517)" fill="#e7e7e7"/></g></svg>