<svg xmlns="http://www.w3.org/2000/svg" width="24" height="24" viewBox="0 0 24 24"><path d="M7.769,3.014a1.832,1.832,0,0,1,3.194,0l5.113,9.09a1.832,1.832,0,0,1-1.6,2.731H4.253a1.832,1.832,0,0,1-1.6-2.731l5.113-9.09Zm2.514,9.073a.916.916,0,1,1-.916-.916A.916.916,0,0,1,10.282,12.087ZM9.366,4.756a.916.916,0,0,0-.916.916V8.421a.916.916,0,0,0,1.833,0V5.672A.916.916,0,0,0,9.366,4.756Z" transform="translate(2.634 3.543)" fill="#383838" fill-rule="evenodd"/><path d="M24,0H0V24H24Z" fill="#383838" opacity="0"/></svg>